<svg width="28" height="29" viewBox="0 0 28 29" fill="none" xmlns="http://www.w3.org/2000/svg">
<circle cx="14" cy="14.3093" r="14" fill="white"/>
<circle cx="14" cy="14.3093" r="13.5" stroke="black" stroke-opacity="0.2"/>
<path d="M14.0008 8.75644C15.8095 8.75644 16.0237 8.76322 16.7382 8.7958C17.1678 8.80105 17.5933 8.87994 17.9962 9.02902C18.2884 9.14171 18.5538 9.31434 18.7753 9.5358C18.9967 9.75725 19.1694 10.0226 19.282 10.3148C19.4311 10.7178 19.51 11.1433 19.5153 11.5729C19.5475 12.2874 19.5546 12.5016 19.5546 14.3103C19.5546 16.119 19.5479 16.3332 19.5153 17.0477C19.51 17.4773 19.4311 17.9029 19.282 18.3058C19.1694 18.598 18.9967 18.8634 18.7753 19.0848C18.5538 19.3063 18.2884 19.4789 17.9962 19.5916C17.5933 19.7407 17.1678 19.8196 16.7382 19.8248C16.024 19.8571 15.8098 19.8642 14.0008 19.8642C12.1917 19.8642 11.9775 19.8574 11.2633 19.8248C10.8337 19.8196 10.4082 19.7407 10.0053 19.5916C9.71307 19.4789 9.44769 19.3063 9.22624 19.0848C9.00479 18.8634 8.83216 18.598 8.71947 18.3058C8.57038 17.9029 8.4915 17.4773 8.48624 17.0477C8.45398 16.3332 8.44689 16.119 8.44689 14.3103C8.44689 12.5016 8.45366 12.2874 8.48624 11.5729C8.4915 11.1433 8.57038 10.7178 8.71947 10.3148C8.83216 10.0226 9.00479 9.75725 9.22624 9.5358C9.44769 9.31434 9.71307 9.14171 10.0053 9.02902C10.4082 8.87994 10.8337 8.80105 11.2633 8.7958C11.9779 8.76354 12.192 8.75644 14.0008 8.75644V8.75644ZM14.0008 7.5358C12.162 7.5358 11.9304 7.54354 11.2079 7.57644C10.6456 7.58763 10.0893 7.69408 9.56269 7.89128C9.11092 8.0615 8.70172 8.32824 8.36366 8.67289C8.01869 9.01108 7.75172 9.42051 7.5814 9.87257C7.3842 10.3992 7.27775 10.9555 7.26656 11.5177C7.2343 12.2397 7.22656 12.4713 7.22656 14.31C7.22656 16.1487 7.2343 16.3803 7.26721 17.1029C7.27839 17.6651 7.38485 18.2214 7.58205 18.7481C7.75218 19.2001 8.01892 19.6095 8.36366 19.9477C8.70191 20.2925 9.11133 20.5592 9.56334 20.7293C10.09 20.9265 10.6463 21.033 11.2085 21.0442C11.9311 21.0764 12.1617 21.0848 14.0014 21.0848C15.8411 21.0848 16.0717 21.0771 16.7943 21.0442C17.3565 21.033 17.9128 20.9265 18.4395 20.7293C18.8893 20.555 19.2978 20.2886 19.6389 19.9474C19.98 19.6061 20.246 19.1974 20.4201 18.7474C20.6173 18.2208 20.7238 17.6645 20.735 17.1022C20.7672 16.3803 20.775 16.1487 20.775 14.31C20.775 12.4713 20.7672 12.2397 20.7343 11.5171C20.7231 10.9548 20.6167 10.3986 20.4195 9.87193C20.2493 9.41992 19.9826 9.0105 19.6379 8.67225C19.2996 8.32751 18.8902 8.06077 18.4382 7.89064C17.9115 7.69344 17.3553 7.58698 16.793 7.5758C16.0711 7.54354 15.8395 7.5358 14.0008 7.5358Z" fill="#2C444E"/>
<path d="M14.0021 10.8326C13.3141 10.8326 12.6416 11.0367 12.0695 11.4189C11.4974 11.8012 11.0515 12.3445 10.7882 12.9801C10.5249 13.6158 10.4561 14.3152 10.5903 14.99C10.7245 15.6648 11.0558 16.2847 11.5423 16.7712C12.0288 17.2577 12.6487 17.589 13.3235 17.7232C13.9983 17.8574 14.6977 17.7886 15.3334 17.5253C15.969 17.262 16.5123 16.8161 16.8946 16.244C17.2768 15.6719 17.4809 14.9994 17.4809 14.3114C17.4809 13.3887 17.1144 12.5039 16.462 11.8515C15.8096 11.1991 14.9248 10.8326 14.0021 10.8326ZM14.0021 16.5694C13.5555 16.5694 13.119 16.437 12.7476 16.1889C12.3763 15.9407 12.0869 15.5881 11.916 15.1755C11.7451 14.7629 11.7003 14.3088 11.7875 13.8708C11.8746 13.4328 12.0897 13.0305 12.4055 12.7147C12.7213 12.3989 13.1236 12.1838 13.5616 12.0967C13.9996 12.0095 14.4537 12.0543 14.8663 12.2252C15.2789 12.3961 15.6315 12.6855 15.8797 13.0568C16.1278 13.4282 16.2602 13.8647 16.2602 14.3114C16.2602 14.9102 16.0223 15.4846 15.5988 15.908C15.1754 16.3315 14.601 16.5694 14.0021 16.5694V16.5694Z" fill="#2C444E"/>
<path d="M17.6176 11.5073C18.0665 11.5073 18.4305 11.1433 18.4305 10.6944C18.4305 10.2454 18.0665 9.88147 17.6176 9.88147C17.1686 9.88147 16.8047 10.2454 16.8047 10.6944C16.8047 11.1433 17.1686 11.5073 17.6176 11.5073Z" fill="#2C444E"/>
</svg>
