<svg width="48" height="48" viewBox="0 0 48 48" fill="none" xmlns="http://www.w3.org/2000/svg">
<path d="M24 0C19.2533 0 14.6131 1.40758 10.6663 4.04473C6.71954 6.68188 3.6434 10.4302 1.8269 14.8156C0.010399 19.201 -0.464881 24.0266 0.461164 28.6822C1.38721 33.3377 3.67299 37.6141 7.02945 40.9706C10.3859 44.327 14.6623 46.6128 19.3178 47.5388C23.9734 48.4649 28.799 47.9896 33.1844 46.1731C37.5698 44.3566 41.3181 41.2805 43.9553 37.3337C46.5924 33.3869 48 28.7467 48 24C47.9929 17.637 45.4621 11.5366 40.9628 7.03723C36.4634 2.53789 30.363 0.00705827 24 0ZM13.2378 39.2378C14.4757 37.5451 16.0955 36.1683 17.9655 35.2192C19.8355 34.2701 21.9029 33.7754 24 33.7754C26.0971 33.7754 28.1646 34.2701 30.0345 35.2192C31.9045 36.1683 33.5243 37.5451 34.7622 39.2378C31.6168 41.4684 27.8561 42.6666 24 42.6666C20.1439 42.6666 16.3832 41.4684 13.2378 39.2378ZM17.7778 22.2222C17.7778 20.9916 18.1427 19.7886 18.8264 18.7653C19.5101 17.7421 20.4819 16.9446 21.6189 16.4736C22.7558 16.0027 24.0069 15.8795 25.2139 16.1196C26.4209 16.3596 27.5296 16.9522 28.3998 17.8224C29.27 18.6926 29.8626 19.8013 30.1027 21.0083C30.3428 22.2153 30.2195 23.4664 29.7486 24.6034C29.2776 25.7403 28.4801 26.7121 27.4569 27.3958C26.4336 28.0795 25.2306 28.4444 24 28.4444C22.3498 28.4444 20.7671 27.7889 19.6002 26.622C18.4333 25.4551 17.7778 23.8725 17.7778 22.2222ZM38.6667 35.5422C36.9382 33.3438 34.7352 31.5647 32.2222 30.3378C33.8238 28.716 34.9099 26.6568 35.344 24.4192C35.7781 22.1816 35.5409 19.8657 34.662 17.7626C33.7831 15.6596 32.302 13.8634 30.4048 12.6001C28.5077 11.3368 26.2793 10.6627 24 10.6627C21.7207 10.6627 19.4923 11.3368 17.5952 12.6001C15.698 13.8634 14.2169 15.6596 13.338 17.7626C12.4592 19.8657 12.2219 22.1816 12.656 24.4192C13.0901 26.6568 14.1763 28.716 15.7778 30.3378C13.2648 31.5647 11.0618 33.3438 9.33334 35.5422C7.16233 32.7901 5.81011 29.4823 5.43146 25.9975C5.05281 22.5127 5.66304 18.9917 7.1923 15.8375C8.72155 12.6833 11.108 10.0235 14.0785 8.16248C17.0491 6.30145 20.4836 5.31445 23.9889 5.31445C27.4942 5.31445 30.9287 6.30145 33.8992 8.16248C36.8698 10.0235 39.2562 12.6833 40.7855 15.8375C42.3148 18.9917 42.925 22.5127 42.5463 25.9975C42.1677 29.4823 40.8155 32.7901 38.6444 35.5422H38.6667Z" fill="#2C444E"/>
</svg>
