<svg width="48" height="48" viewBox="0 0 48 48" fill="none" xmlns="http://www.w3.org/2000/svg">
<g clip-path="url(#clip0_34_7818)">
<path d="M23.9999 48C18.2463 48 12.9655 45.9753 8.83124 42.5997C12.5658 40.7235 17.7074 39 23.9999 39C30.2924 39 35.4341 40.7235 39.1685 42.5997C35.0342 45.9753 29.7536 48 23.9999 48Z" fill="#FFC801"/>
<path d="M0.185669 27C0.697398 31.1037 2.24519 34.8858 4.55904 38.076C4.68384 38.0061 4.81032 37.9362 4.93842 37.8663C9.39456 35.4357 15.8865 33 24 33C32.1135 33 38.6055 35.4357 43.0614 37.8663C43.1898 37.9362 43.3161 38.0061 43.4409 38.076C45.7548 34.8858 47.3025 31.1037 47.8143 27H0.185669Z" fill="#2C444E"/>
<path d="M4.55901 9.92413C2.24518 13.1143 0.697395 16.8963 0.185669 21H47.8143C47.3025 16.8963 45.7548 13.1143 43.4409 9.92407C43.3161 9.99394 43.1895 10.0638 43.0614 10.1337C38.6052 12.5643 32.1135 15 23.9999 15C15.8864 15 9.39447 12.5643 4.93833 10.1337C4.81026 10.0639 4.68381 9.99397 4.55901 9.92413Z" fill="#2C444E"/>
<path d="M39.1686 5.40033C35.4342 7.27644 30.2925 9 23.9999 9C17.7074 9 12.5658 7.27647 8.83124 5.40039C12.9655 2.02466 18.2463 0 24 0C29.7536 0 35.0343 2.02464 39.1686 5.40033Z" fill="#FFC801"/>
</g>
<defs>
<clipPath id="clip0_34_7818">
<rect width="48" height="48" fill="white"/>
</clipPath>
</defs>
</svg>
