<svg width="21" height="22" viewBox="0 0 21 22" fill="none" xmlns="http://www.w3.org/2000/svg">
<path d="M19.9399 19.2105L15.4877 14.7565C16.8226 13.0169 17.4458 10.8347 17.2309 8.65253C17.0161 6.47036 15.9792 4.45162 14.3306 3.00583C12.6821 1.56003 10.5453 0.79545 8.35376 0.867175C6.16221 0.938899 4.07999 1.84156 2.5295 3.39205C0.979013 4.94254 0.0763502 7.02476 0.00462578 9.21631C-0.0670986 11.4079 0.697486 13.5446 2.14328 15.1932C3.58907 16.8417 5.60781 17.8786 7.78998 18.0935C9.97216 18.3084 12.1544 17.6851 13.8939 16.3502L18.3499 20.8071C18.4545 20.9117 18.5787 20.9947 18.7155 21.0514C18.8522 21.108 18.9987 21.1372 19.1467 21.1372C19.2947 21.1372 19.4413 21.108 19.578 21.0514C19.7147 20.9947 19.839 20.9117 19.9436 20.8071C20.0482 20.7024 20.1313 20.5782 20.1879 20.4415C20.2445 20.3048 20.2737 20.1582 20.2737 20.0102C20.2737 19.8622 20.2445 19.7157 20.1879 19.5789C20.1313 19.4422 20.0482 19.318 19.9436 19.2133L19.9399 19.2105ZM2.26891 9.50646C2.26891 8.24561 2.6428 7.01307 3.3433 5.9647C4.04379 4.91634 5.03943 4.09924 6.20431 3.61673C7.36919 3.13422 8.65099 3.00798 9.88762 3.25396C11.1242 3.49994 12.2602 4.1071 13.1517 4.99866C14.0433 5.89022 14.6504 7.02613 14.8964 8.26276C15.1424 9.49939 15.0162 10.7812 14.5336 11.9461C14.0511 13.1109 13.234 14.1066 12.1857 14.8071C11.1373 15.5076 9.90477 15.8815 8.64392 15.8815C6.95369 15.8797 5.3332 15.2075 4.13803 14.0124C2.94286 12.8172 2.27065 11.1967 2.26891 9.50646Z" fill="#939FA4"/>
</svg>
